<?xml version="1.0" encoding="utf-8" ?><svg xmlns="http://www.w3.org/2000/svg" xmlns:xlink="http://www.w3.org/1999/xlink" width="1024" height="1024" viewBox="0 0 1024 1024" xmlns:c2pa="http://c2pa.org/manifest"><metadata><c2pa:manifest>AAAgRWp1bWIAAAAeanVtZGMycGEAEQAQgAAAqgA4m3EDYzJwYQAAAAxBanVtYgAAAEdqdW1kYzJtYQARABCAAACqADibcQN1cm46YzJwYTpiYjFkYTFiYy0zOTg1LTQxMzYtOGFjNy03MjBmMTUxYWM1M2QAAAAB4mp1bWIAAAApanVtZGMyYXMAEQAQgAAAqgA4m3EDYzJwYS5hc3NlcnRpb25zAAAAAO1qdW1iAAAAQWp1bWRjYm9yABEAEIAAAKoAOJtxE2MycGEuYWN0aW9ucy52MgAAAAAYYzJzaGa3IVjhXHa/AgY5+NtRAhQAAACkY2JvcqFnYWN0aW9uc4GjZmFjdGlvbmxjMnBhLmNyZWF0ZWRxZGlnaXRhbFNvdXJjZVR5cGV4Rmh0dHA6Ly9jdi5pcHRjLm9yZy9uZXdzY29kZXMvZGlnaXRhbHNvdXJjZXR5cGUvdHJhaW5lZEFsZ29yaXRobWljTWVkaWFrZGVzY3JpcHRpb252Q3JlYXRlZCBieSBSZWNyYWZ0IEFJLgAAAMRqdW1iAAAAQGp1bWRjYm9yABEAEIAAAKoAOJtxE2MycGEuaGFzaC5kYXRhAAAAABhjMnNowPkXdkezbv+soZUlIgz98QAAAHxjYm9ypWpleGNsdXNpb25zgaJlc3RhcnQY22ZsZW5ndGgZEIxkbmFtZW5qdW1iZiBtYW5pZmVzdGNhbGdmc2hhMjU2ZGhhc2hYIGRzq5OowN10qycP357hsPbj+UzIezlEBpFfCC0D49l4Y3BhZEkAAAAAAAAAAAAAAAI0anVtYgAAACdqdW1kYzJjbAARABCAAACqADibcQNjMnBhLmNsYWltLnYyAAAAAgVjYm9ypmppbnN0YW5jZUlEeCx4bXA6aWlkOmEyMDEyYzMzLWQxZjgtNDk5OS04YTdlLTc3M2NlMjc3MTA0YnRjbGFpbV9nZW5lcmF0b3JfaW5mb6NkbmFtZWpyZWNyYWZ0LmFpZ3ZlcnNpb254KDgxY2U4MmUyYzVjM2NiZmJlOGM2ZmJlMTc5ZDVmOGQ5MWM0MDljZTF3b3JnLmNvbnRlbnRhdXRoLmMycGFfcnNmMC45MC43aXNpZ25hdHVyZXhNc2VsZiNqdW1iZj0vYzJwYS91cm46YzJwYTpiYjFkYTFiYy0zOTg1LTQxMzYtOGFjNy03MjBmMTUxYWM1M2QvYzJwYS5zaWduYXR1cmVyY3JlYXRlZF9hc3NlcnRpb25zgqJjdXJseCpzZWxmI2p1bWJmPWMycGEuYXNzZXJ0aW9ucy9jMnBhLmFjdGlvbnMudjJkaGFzaFggAtQq4/zA4qMV5K5fpNkDg9EY8p9MujQoso0n+Gjal3yiY3VybHgpc2VsZiNqdW1iZj1jMnBhLmFzc2VydGlvbnMvYzJwYS5oYXNoLmRhdGFkaGFzaFggdxevFFpljZ8VsZLdIS+uCnIyPvGr2o+zpuBpk7/i4HRoZGM6dGl0bGV4GlJlY3JhZnQgQUkgR2VuZXJhdGVkIEltYWdlY2FsZ2ZzaGEyNTYAAAfcanVtYgAAAChqdW1kYzJjcwARABCAAACqADibcQNjMnBhLnNpZ25hdHVyZQAAAAesY2JvctKEWQOwogEmGCGCWQHnMIIB4zCCAYmgAwIBAgIJALfeWmNDUW56MAoGCCqGSM49BAMCMEAxHzAdBgNVBAMMFlJlY3JhZnQgU3RhZ2luZyBEZXYgQ0ExEDAOBgNVBAoMB1JlY3JhZnQxCzAJBgNVBAYTAlVTMB4XDTI2MDYxMjE5NDM1MFoXDTI3MDYxMjE5NDM1MFowNzELMAkGA1UEBhMCVVMxEzARBgNVBAoTClJlY3JhZnQgQUkxEzARBgNVBAMTCnJlY3JhZnQuYWkwWTATBgcqhkjOPQIBBggqhkjOPQMBBwNCAARKaTVbACsg/DeG3LeOxYdID/VA6EFG73E6Oknb+KIiCFJygRUz4ueN2z/t2qYb6CIUvS8RvgOiiClfoqsYtw81o3UwczAMBgNVHRMBAf8EAjAAMA4GA1UdDwEB/wQEAwIGwDATBgNVHSUEDDAKBggrBgEFBQcDBDAdBgNVHQ4EFgQULzHpBen96SL1y4IPHa8MkMshXf0wHwYDVR0jBBgwFoAUAgsqOBrKqpdK//m/kxZo7ZR4ebcwCgYIKoZIzj0EAwIDSAAwRQIgU8hKW0aXvvk8SQgVFNkax69Ym9ae8GsT2RZTQw+B51ACIQC0D4BkEoRD4N0r2ZRkNy0HZaW3WICy/QZGN95ilF4yzFkBvTCCAbkwggFfoAMCAQICCQCc+Wg7T6ATbzAKBggqhkjOPQQDAjBAMR8wHQYDVQQDDBZSZWNyYWZ0IFN0YWdpbmcgRGV2IENBMRAwDgYDVQQKDAdSZWNyYWZ0MQswCQYDVQQGEwJVUzAeFw0yNjA2MTIxOTQwMTZaFw0yODA2MTExOTQwMTZaMEAxHzAdBgNVBAMMFlJlY3JhZnQgU3RhZ2luZyBEZXYgQ0ExEDAOBgNVBAoMB1JlY3JhZnQxCzAJBgNVBAYTAlVTMFkwEwYHKoZIzj0CAQYIKoZIzj0DAQcDQgAEQ9IQBlcVbKaKPYrQSfOhL/00s7xUDC7RinIuLO/I1k99y9yh6oWF9kPxaP+tx1v1PeOL3yrVquJ730H0ZGiDyqNCMEAwDwYDVR0TAQH/BAUwAwEB/zAOBgNVHQ8BAf8EBAMCAYYwHQYDVR0OBBYEFAILKjgayqqXSv/5v5MWaO2UeHm3MAoGCCqGSM49BAMCA0gAMEUCIFQwNImLlYDeQhjgF+ZiqTbgcuzSqmOJw3Q2lQ/hu83FAiEA9O8cLm/xfoVLqB4jtdbuHzi3WL+p2RN+DRGkwpYswVuhY3BhZFkDpAAAAAAAAAAAAAAAAAAAAAAAAAAAAAAAAAAAAAAAAAAAAAAAAAAAAAAAAAAAAAAAAAAAAAAAAAAAAAAAAAAAAAAAAAAAAAAAAAAAAAAAAAAAAAAAAAAAAAAAAAAAAAAAAAAAAAAAAAAAAAAAAAAAAAAAAAAAAAAAAAAAAAAAAAAAAAAAAAAAAAAAAAAAAAAAAAAAAAAAAAAAAAAAAAAAAAAAAAAAAAAAAAAAAAAAAAAAAAAAAAAAAAAAAAAAAAAAAAAAAAAAAAAAAAAAAAAAAAAAAAAAAAAAAAAAAAAAAAAAAAAAAAAAAAAAAAAAAAAAAAAAAAAAAAAAAAAAAAAAAAAAAAAAAAAAAAAAAAAAAAAAAAAAAAAAAAAAAAAAAAAAAAAAAAAAAAAAAAAAAAAAAAAAAAAAAAAAAAAAAAAAAAAAAAAAAAAAAAAAAAAAAAAAAAAAAAAAAAAAAAAAAAAAAAAAAAAAAAAAAAAAAAAAAAAAAAAAAAAAAAAAAAAAAAAAAAAAAAAAAAAAAAAAAAAAAAAAAAAAAAAAAAAAAAAAAAAAAAAAAAAAAAAAAAAAAAAAAAAAAAAAAAAAAAAAAAAAAAAAAAAAAAAAAAAAAAAAAAAAAAAAAAAAAAAAAAAAAAAAAAAAAAAAAAAAAAAAAAAAAAAAAAAAAAAAAAAAAAAAAAAAAAAAAAAAAAAAAAAAAAAAAAAAAAAAAAAAAAAAAAAAAAAAAAAAAAAAAAAAAAAAAAAAAAAAAAAAAAAAAAAAAAAAAAAAAAAAAAAAAAAAAAAAAAAAAAAAAAAAAAAAAAAAAAAAAAAAAAAAAAAAAAAAAAAAAAAAAAAAAAAAAAAAAAAAAAAAAAAAAAAAAAAAAAAAAAAAAAAAAAAAAAAAAAAAAAAAAAAAAAAAAAAAAAAAAAAAAAAAAAAAAAAAAAAAAAAAAAAAAAAAAAAAAAAAAAAAAAAAAAAAAAAAAAAAAAAAAAAAAAAAAAAAAAAAAAAAAAAAAAAAAAAAAAAAAAAAAAAAAAAAAAAAAAAAAAAAAAAAAAAAAAAAAAAAAAAAAAAAAAAAAAAAAAAAAAAAAAAAAAAAAAAAAAAAAAAAAAAAAAAAAAAAAAAAAAAAAAAAAAAAAAAAAAAAAAAAAAAAAAAAAAAAAAAAAAAAAAAAAAAAAAAAAAAAAAAAAAAAAAAAAAAAAAAAAAAAAAAAAAAAAAAAAAAAAAAAAAAAAAAAAAAAAAAAAAAAAAAAAAAA9lhAO/5aFtnqikQAGmLF02U9bEGSCqGhjw1+ABOKP6wChFIIjh6xingHXI05qZMqlhA4+l/+Ca6R8fLO+qTjOg0m9wAAE95qdW1iAAAAR2p1bWRjMm1hABEAEIAAAKoAOJtxA3VybjpjMnBhOjMyODBkZWJjLWM2OTItNDMxZC1iYjQ4LTI1YjU3YTJjZmMzMgAAAAkdanVtYgAAAClqdW1kYzJhcwARABCAAACqADibcQNjMnBhLmFzc2VydGlvbnMAAAAGOmp1bWIAAABEanVtZGNib3IAEQAQgAAAqgA4m3ETYzJwYS5pbmdyZWRpZW50LnYzAAAAABhjMnNoRSolkbc1aAmpcA0JUbG9xAAABe5jYm9yp2xyZWxhdGlvbnNoaXBocGFyZW50T2ZoZGM6dGl0bGVmc291cmNlaWRjOmZvcm1hdG1pbWFnZS9zdmcreG1scXZhbGlkYXRpb25SZXN1bHRzoW5hY3RpdmVNYW5pZmVzdKNnc3VjY2Vzc4WjZGNvZGV4HWNsYWltU2lnbmF0dXJlLmluc2lkZVZhbGlkaXR5Y3VybHhNc2VsZiNqdW1iZj0vYzJwYS91cm46YzJwYTpiYjFkYTFiYy0zOTg1LTQxMzYtOGFjNy03MjBmMTUxYWM1M2QvYzJwYS5zaWduYXR1cmVrZXhwbGFuYXRpb251Y2xhaW0gc2lnbmF0dXJlIHZhbGlko2Rjb2RleBhjbGFpbVNpZ25hdHVyZS52YWxpZGF0ZWRjdXJseE1zZWxmI2p1bWJmPS9jMnBhL3VybjpjMnBhOmJiMWRhMWJjLTM5ODUtNDEzNi04YWM3LTcyMGYxNTFhYzUzZC9jMnBhLnNpZ25hdHVyZWtleHBsYW5hdGlvbnVjbGFpbSBzaWduYXR1cmUgdmFsaWSjZGNvZGV4GWFzc2VydGlvbi5oYXNoZWRVUkkubWF0Y2hjdXJseF5zZWxmI2p1bWJmPS9jMnBhL3VybjpjMnBhOmJiMWRhMWJjLTM5ODUtNDEzNi04YWM3LTcyMGYxNTFhYzUzZC9jMnBhLmFzc2VydGlvbnMvYzJwYS5hY3Rpb25zLnYya2V4cGxhbmF0aW9ueD5oYXNoZWQgdXJpIG1hdGNoZWQ6IHNlbGYjanVtYmY9YzJwYS5hc3NlcnRpb25zL2MycGEuYWN0aW9ucy52MqNkY29kZXgZYXNzZXJ0aW9uLmhhc2hlZFVSSS5tYXRjaGN1cmx4XXNlbGYjanVtYmY9L2MycGEvdXJuOmMycGE6YmIxZGExYmMtMzk4NS00MTM2LThhYzctNzIwZjE1MWFjNTNkL2MycGEuYXNzZXJ0aW9ucy9jMnBhLmhhc2guZGF0YWtleHBsYW5hdGlvbng9aGFzaGVkIHVyaSBtYXRjaGVkOiBzZWxmI2p1bWJmPWMycGEuYXNzZXJ0aW9ucy9jMnBhLmhhc2guZGF0YaNkY29kZXgYYXNzZXJ0aW9uLmRhdGFIYXNoLm1hdGNoY3VybHhdc2VsZiNqdW1iZj0vYzJwYS91cm46YzJwYTpiYjFkYTFiYy0zOTg1LTQxMzYtOGFjNy03MjBmMTUxYWM1M2QvYzJwYS5hc3NlcnRpb25zL2MycGEuaGFzaC5kYXRha2V4cGxhbmF0aW9ub2RhdGEgaGFzaCB2YWxpZG1pbmZvcm1hdGlvbmFsgGdmYWlsdXJlgaNkY29kZXgbc2lnbmluZ0NyZWRlbnRpYWwudW50cnVzdGVkY3VybHhNc2VsZiNqdW1iZj0vYzJwYS91cm46YzJwYTpiYjFkYTFiYy0zOTg1LTQxMzYtOGFjNy03MjBmMTUxYWM1M2QvYzJwYS5zaWduYXR1cmVrZXhwbGFuYXRpb254HXNpZ25pbmcgY2VydGlmaWNhdGUgdW50cnVzdGVkamluc3RhbmNlSUR4LHhtcDppaWQ6MzhjYTEyOGQtZjFlZi00NjRkLTg3OTYtZTdlNzEyNTBhNTM1bmFjdGl2ZU1hbmlmZXN0o2N1cmx4PnNlbGYjanVtYmY9L2MycGEvdXJuOmMycGE6YmIxZGExYmMtMzk4NS00MTM2LThhYzctNzIwZjE1MWFjNTNkY2FsZ2ZzaGEyNTZkaGFzaFggdce70RrwT4hWOD83QayGePi0SLN2+/fMqAGfNPl1cCduY2xhaW1TaWduYXR1cmWjY3VybHhNc2VsZiNqdW1iZj0vYzJwYS91cm46YzJwYTpiYjFkYTFiYy0zOTg1LTQxMzYtOGFjNy03MjBmMTUxYWM1M2QvYzJwYS5zaWduYXR1cmVjYWxnZnNoYTI1NmRoYXNoWCCCbslxezcL4bkC1ROX1RYg01YHnn1k6vJpqSPxmtHe3gAAAe5qdW1iAAAAQWp1bWRjYm9yABEAEIAAAKoAOJtxE2MycGEuYWN0aW9ucy52MgAAAAAYYzJzaFBf7olbe/vn7FgF8KI0KGQAAAGlY2JvcqFnYWN0aW9uc4KiZmFjdGlvbmtjMnBhLm9wZW5lZGpwYXJhbWV0ZXJzoWtpbmdyZWRpZW50c4GiY3VybHgtc2VsZiNqdW1iZj1jMnBhLmFzc2VydGlvbnMvYzJwYS5pbmdyZWRpZW50LnYzZGhhc2hYIHum5TBwIwDyvnWEsk9ztUzOYvQwRWTMIB0wb1T+PUIQpGZhY3Rpb25sYzJwYS5jcmVhdGVkanBhcmFtZXRlcnOha2luZ3JlZGllbnRzgaJjdXJseC1zZWxmI2p1bWJmPWMycGEuYXNzZXJ0aW9ucy9jMnBhLmluZ3JlZGllbnQudjNkaGFzaFgge6blMHAjAPK+dYSyT3O1TM5i9DBFZMwgHTBvVP49QhBxZGlnaXRhbFNvdXJjZVR5cGV4QWh0dHA6Ly9jdi5pcHRjLm9yZy9uZXdzY29kZXMvZGlnaXRhbHNvdXJjZXR5cGUvY29tcG9zaXRlU3ludGhldGlja2Rlc2NyaXB0aW9ueB9Db21wb3NlZCBpbiB0aGUgUmVjcmFmdCBlZGl0b3IuAAAAxGp1bWIAAABAanVtZGNib3IAEQAQgAAAqgA4m3ETYzJwYS5oYXNoLmRhdGEAAAAAGGMyc2g4Id2C9Sk/akRrwBMvfWNZAAAAfGNib3KlamV4Y2x1c2lvbnOBomVzdGFydBjsZmxlbmd0aBkrCGRuYW1lbmp1bWJmIG1hbmlmZXN0Y2FsZ2ZzaGEyNTZkaGFzaFgglHToQVV5NMxHyt2HFExzF3jZ8Wa68WPgrmZ/JgIp8a9jcGFkSQAAAAAAAAAAAAAAApZqdW1iAAAAJ2p1bWRjMmNsABEAEIAAAKoAOJtxA2MycGEuY2xhaW0udjIAAAACZ2Nib3Knamluc3RhbmNlSUR4LHhtcDppaWQ6OWRlNjZhZTQtZTMwOS00NmJjLTgyM2UtNDE1NjFmMjM1ZDNhdGNsYWltX2dlbmVyYXRvcl9pbmZvo2RuYW1lanJlY3JhZnQuYWlndmVyc2lvbngoODFjZTgyZTJjNWMzY2JmYmU4YzZmYmUxNzlkNWY4ZDkxYzQwOWNlMXdvcmcuY29udGVudGF1dGguYzJwYV9yc2YwLjkwLjdpc2lnbmF0dXJleE1zZWxmI2p1bWJmPS9jMnBhL3VybjpjMnBhOjMyODBkZWJjLWM2OTItNDMxZC1iYjQ4LTI1YjU3YTJjZmMzMi9jMnBhLnNpZ25hdHVyZXJjcmVhdGVkX2Fzc2VydGlvbnOComN1cmx4KnNlbGYjanVtYmY9YzJwYS5hc3NlcnRpb25zL2MycGEuYWN0aW9ucy52MmRoYXNoWCBTHB8XRZxkJinI1ps+Nh84/eLADsRoqR0tzOJmjvS5iKJjdXJseClzZWxmI2p1bWJmPWMycGEuYXNzZXJ0aW9ucy9jMnBhLmhhc2guZGF0YWRoYXNoWCBVGjuc1c8nzsPPV26//VvxFOwvNnVe36OXoavn/k3aZXNnYXRoZXJlZF9hc3NlcnRpb25zgaJjdXJseC1zZWxmI2p1bWJmPWMycGEuYXNzZXJ0aW9ucy9jMnBhLmluZ3JlZGllbnQudjNkaGFzaFgge6blMHAjAPK+dYSyT3O1TM5i9DBFZMwgHTBvVP49QhBoZGM6dGl0bGVtUmVjcmFmdCBJbWFnZWNhbGdmc2hhMjU2AAAH3Gp1bWIAAAAoanVtZGMyY3MAEQAQgAAAqgA4m3EDYzJwYS5zaWduYXR1cmUAAAAHrGNib3LShFkDsKIBJhghglkB5zCCAeMwggGJoAMCAQICCQC33lpjQ1FuejAKBggqhkjOPQQDAjBAMR8wHQYDVQQDDBZSZWNyYWZ0IFN0YWdpbmcgRGV2IENBMRAwDgYDVQQKDAdSZWNyYWZ0MQswCQYDVQQGEwJVUzAeFw0yNjA2MTIxOTQzNTBaFw0yNzA2MTIxOTQzNTBaMDcxCzAJBgNVBAYTAlVTMRMwEQYDVQQKEwpSZWNyYWZ0IEFJMRMwEQYDVQQDEwpyZWNyYWZ0LmFpMFkwEwYHKoZIzj0CAQYIKoZIzj0DAQcDQgAESmk1WwArIPw3hty3jsWHSA/1QOhBRu9xOjpJ2/iiIghScoEVM+Lnjds/7dqmG+giFL0vEb4DoogpX6KrGLcPNaN1MHMwDAYDVR0TAQH/BAIwADAOBgNVHQ8BAf8EBAMCBsAwEwYDVR0lBAwwCgYIKwYBBQUHAwQwHQYDVR0OBBYEFC8x6QXp/eki9cuCDx2vDJDLIV39MB8GA1UdIwQYMBaAFAILKjgayqqXSv/5v5MWaO2UeHm3MAoGCCqGSM49BAMCA0gAMEUCIFPISltGl775PEkIFRTZGsevWJvWnvBrE9kWU0MPgedQAiEAtA+AZBKEQ+DdK9mUZDctB2Wlt1iAsv0GRjfeYpReMsxZAb0wggG5MIIBX6ADAgECAgkAnPloO0+gE28wCgYIKoZIzj0EAwIwQDEfMB0GA1UEAwwWUmVjcmFmdCBTdGFnaW5nIERldiBDQTEQMA4GA1UECgwHUmVjcmFmdDELMAkGA1UEBhMCVVMwHhcNMjYwNjEyMTk0MDE2WhcNMjgwNjExMTk0MDE2WjBAMR8wHQYDVQQDDBZSZWNyYWZ0IFN0YWdpbmcgRGV2IENBMRAwDgYDVQQKDAdSZWNyYWZ0MQswCQYDVQQGEwJVUzBZMBMGByqGSM49AgEGCCqGSM49AwEHA0IABEPSEAZXFWymij2K0EnzoS/9NLO8VAwu0YpyLizvyNZPfcvcoeqFhfZD8Wj/rcdb9T3ji98q1arie99B9GRog8qjQjBAMA8GA1UdEwEB/wQFMAMBAf8wDgYDVR0PAQH/BAQDAgGGMB0GA1UdDgQWBBQCCyo4Gsqql0r/+b+TFmjtlHh5tzAKBggqhkjOPQQDAgNIADBFAiBUMDSJi5WA3kIY4BfmYqk24HLs0qpjicN0NpUP4bvNxQIhAPTvHC5v8X6FS6geI7XW7h84t1i/qdkTfg0RpMKWLMFboWNwYWRZA6QAAAAAAAAAAAAAAAAAAAAAAAAAAAAAAAAAAAAAAAAAAAAAAAAAAAAAAAAAAAAAAAAAAAAAAAAAAAAAAAAAAAAAAAAAAAAAAAAAAAAAAAAAAAAAAAAAAAAAAAAAAAAAAAAAAAAAAAAAAAAAAAAAAAAAAAAAAAAAAAAAAAAAAAAAAAAAAAAAAAAAAAAAAAAAAAAAAAAAAAAAAAAAAAAAAAAAAAAAAAAAAAAAAAAAAAAAAAAAAAAAAAAAAAAAAAAAAAAAAAAAAAAAAAAAAAAAAAAAAAAAAAAAAAAAAAAAAAAAAAAAAAAAAAAAAAAAAAAAAAAAAAAAAAAAAAAAAAAAAAAAAAAAAAAAAAAAAAAAAAAAAAAAAAAAAAAAAAAAAAAAAAAAAAAAAAAAAAAAAAAAAAAAAAAAAAAAAAAAAAAAAAAAAAAAAAAAAAAAAAAAAAAAAAAAAAAAAAAAAAAAAAAAAAAAAAAAAAAAAAAAAAAAAAAAAAAAAAAAAAAAAAAAAAAAAAAAAAAAAAAAAAAAAAAAAAAAAAAAAAAAAAAAAAAAAAAAAAAAAAAAAAAAAAAAAAAAAAAAAAAAAAAAAAAAAAAAAAAAAAAAAAAAAAAAAAAAAAAAAAAAAAAAAAAAAAAAAAAAAAAAAAAAAAAAAAAAAAAAAAAAAAAAAAAAAAAAAAAAAAAAAAAAAAAAAAAAAAAAAAAAAAAAAAAAAAAAAAAAAAAAAAAAAAAAAAAAAAAAAAAAAAAAAAAAAAAAAAAAAAAAAAAAAAAAAAAAAAAAAAAAAAAAAAAAAAAAAAAAAAAAAAAAAAAAAAAAAAAAAAAAAAAAAAAAAAAAAAAAAAAAAAAAAAAAAAAAAAAAAAAAAAAAAAAAAAAAAAAAAAAAAAAAAAAAAAAAAAAAAAAAAAAAAAAAAAAAAAAAAAAAAAAAAAAAAAAAAAAAAAAAAAAAAAAAAAAAAAAAAAAAAAAAAAAAAAAAAAAAAAAAAAAAAAAAAAAAAAAAAAAAAAAAAAAAAAAAAAAAAAAAAAAAAAAAAAAAAAAAAAAAAAAAAAAAAAAAAAAAAAAAAAAAAAAAAAAAAAAAAAAAAAAAAAAAAAAAAAAAAAAAAAAAAAAAAAAAAAAAAAAAAAAAAAAAAAAAAAAAAAAAAAAAAAAAAAAAAAAAAAAAAAAAAAAAAAAAAAAAAAAAAAAAAAAAAAAAAAAAAAAAAAAAAAAAAAAAAAAAAAAAAAAAAAAAAAAAAAAAAAAAAPZYQA4ki3jNcOGg8UoeW7FZPbYFYvhEA4qMSav3IjALoiMaf4nrfRytw+cVrB4q7V/H5myau7xY8SuooJo6CIjVGaI=</c2pa:manifest></metadata><path fill="#1A1A1A" d="M462.28 228.528L492.584 173.779C496.394 166.733 507.491 145.418 511.694 139.846L512.289 139.982C523.178 157.535 533.788 178.932 544.255 197.06C547.313 202.356 559.797 223.767 561.642 228.457C564.722 233.874 570.309 242.065 572.738 247.373C582.212 261.979 593.725 283.787 602.774 299.381L672.419 419.498L733.16 524.193L751.037 554.581C753.661 559.013 759.442 568.405 761.504 572.919C764.756 577.773 768.164 585.105 771.206 590.315C774.271 595.563 777.615 600.925 780.173 606.397C782.269 609.495 789.269 620.639 790.642 623.883L790.436 624.525C788.417 624.614 786.991 624.516 785.005 624.491C767.048 623.635 747.331 624.047 729.221 624.034L637.5 623.991L358.028 623.994L264.355 623.973C259.239 623.957 239.256 624.661 235.205 623.745L235.101 622.92C236.396 619.801 241.504 611.92 243.642 609.442C244.944 606.587 249.292 599.627 251.028 596.723C255.128 589.874 259.142 582.974 263.068 576.024L310.817 492.083C343.955 432.94 377.439 373.991 411.265 315.239L444.738 257.841C449.706 249.407 456.967 236.276 462.28 228.528ZM650.107 546.921C603.743 495.954 558.753 441.989 512.02 391.666L425.018 494.541C412.403 509.36 397.712 528.093 384.671 542.022C410.949 543.358 439.506 543.473 465.956 543.989L568.909 546.117L622.002 547.044C630.656 547.177 641.717 547.923 650.107 546.921Z"/><path fill="#F69E36" d="M512.444 269.856C528.836 301.63 546.334 332.346 562.993 363.839C580.492 397.678 597.54 431.748 614.133 466.04C627.373 492.806 642.223 521.236 654.577 548.289L742.147 597.258L770.724 612.841C776.358 615.911 783.896 619.794 789.002 623.43C789.692 623.799 789.829 623.992 790.436 624.525C788.417 624.614 786.991 624.516 785.005 624.491C767.048 623.635 747.331 624.047 729.221 624.034L637.5 623.991L358.028 623.994L264.355 623.973C259.239 623.957 239.256 624.661 235.205 623.745L235.101 622.92C241.872 619.518 251.429 613.61 258.695 609.723L342.936 564.298C353.674 558.507 364.228 552.281 375.08 546.691L377.311 546.989C378.119 546.427 378.938 545.88 379.768 545.348L384.671 542.022C410.949 543.358 439.506 543.473 465.956 543.989L568.909 546.117L622.002 547.044C630.656 547.177 641.717 547.923 650.107 546.921C603.743 495.954 558.753 441.989 512.02 391.666C512.417 384.808 512.22 378.176 512.34 371.342C512.932 337.667 511.592 303.486 512.444 269.856Z"/><path fill="#1A1A1A" d="M235.101 622.92C241.872 619.518 251.429 613.61 258.695 609.723L342.936 564.298C353.674 558.507 364.228 552.281 375.08 546.691L377.311 546.989C394.202 550.371 415.071 556.634 431.906 561.3L491.268 577.198C498.133 579.066 505.038 581.001 511.881 582.969C533.693 589.242 557.508 591.157 579.948 594.521L725.894 615.299L771.646 621.724C775.903 622.339 780.951 622.727 785.018 623.41L785.005 624.491C767.048 623.635 747.331 624.047 729.221 624.034L637.5 623.991L358.028 623.994L264.355 623.973C259.239 623.957 239.256 624.661 235.205 623.745L235.101 622.92Z"/><path fill="#6A3504" d="M789.002 623.43C789.692 623.799 789.829 623.992 790.436 624.525C788.417 624.614 786.991 624.516 785.005 624.491L785.018 623.41C786.721 623.496 787.318 623.548 789.002 623.43Z"/><path fill="#F69E36" d="M462.28 228.528L492.584 173.779C496.394 166.733 507.491 145.418 511.694 139.846L512.289 139.982L512.229 140.652C511.529 148.929 512.064 165.657 512.081 174.463L512.053 241.052C512.02 246.164 512.354 264.717 511.828 268.054C511.138 272.43 501.902 290.12 499.235 295.507L475.303 343.724L410.446 477.229C399.814 499.152 389.229 522.453 378.06 543.951L379.768 545.348C378.938 545.88 378.119 546.427 377.311 546.989L375.08 546.691C364.228 552.281 353.674 558.507 342.936 564.298L258.695 609.723C251.429 613.61 241.872 619.518 235.101 622.92C236.396 619.801 241.504 611.92 243.642 609.442C244.944 606.587 249.292 599.627 251.028 596.723C255.128 589.874 259.142 582.974 263.068 576.024L310.817 492.083C343.955 432.94 377.439 373.991 411.265 315.239L444.738 257.841C449.706 249.407 456.967 236.276 462.28 228.528Z"/><path fill="#1A1A1A" d="M462.28 228.528C457.087 244.491 450.124 261.867 444.142 277.66L426.056 326.795L413.619 361.091C411.659 366.519 408.533 375.758 406.095 380.754C403.805 385.448 396.889 394.259 393.552 398.852L369.472 432.095L275.051 564.067C267.704 574.262 260.752 584.887 253.588 595.211C251.296 598.514 246.085 606.924 243.642 609.442C244.944 606.587 249.292 599.627 251.028 596.723C255.128 589.874 259.142 582.974 263.068 576.024L310.817 492.083C343.955 432.94 377.439 373.991 411.265 315.239L444.738 257.841C449.706 249.407 456.967 236.276 462.28 228.528Z"/><path fill="#3E190A" d="M375.08 546.691C376.635 545.576 376.926 545.448 378.06 543.951L379.768 545.348C378.938 545.88 378.119 546.427 377.311 546.989L375.08 546.691Z"/><path fill="#F69E36" d="M568.393 247.507C568.868 247.415 568.982 247.478 569.133 247.242C569.036 246.655 568.142 244.811 567.864 243.86C566.645 239.693 569.981 243.789 570.397 245.199C570.707 246.249 571.413 247.21 572.738 247.373C582.212 261.979 593.725 283.787 602.774 299.381L672.419 419.498L733.16 524.193L751.037 554.581C753.661 559.013 759.442 568.405 761.504 572.919C760.339 574.931 763.726 577.848 761.61 578.173C760.944 577.026 760.763 576.967 759.462 576.644C756.684 574.019 747.184 559.342 744.503 555.43C723.057 524.133 701.298 493.713 678.518 463.389L637.796 408.818C631.258 400.02 622.697 389.714 617.126 380.549C615.466 377.82 611.317 365.778 610.008 362.155L599.566 333.525C592.352 314.23 585.31 294.871 578.44 275.451C575.141 266.295 571.375 256.699 568.393 247.507Z"/><path fill="#F2994A" d="M759.462 576.644C760.763 576.967 760.944 577.026 761.61 578.173C763.726 577.848 760.339 574.931 761.504 572.919C764.756 577.773 768.164 585.105 771.206 590.315C774.271 595.563 777.615 600.925 780.173 606.397C778.381 605.717 761.888 580.481 759.462 576.644Z"/><path fill="#F2994A" d="M568.393 247.507C567.631 246.007 561.717 230.123 561.685 229.197L561.642 228.457C564.722 233.874 570.309 242.065 572.738 247.373C571.413 247.21 570.707 246.249 570.397 245.199C569.981 243.789 566.645 239.693 567.864 243.86C568.142 244.811 569.036 246.655 569.133 247.242C568.982 247.478 568.868 247.415 568.393 247.507Z"/><path fill="#F2994A" d="M186.744 744.495C197.519 744.02 214.54 744.238 225.428 744.503C225.56 748.051 225.457 751.689 225.491 755.246C225.79 786.679 225.101 818.208 225.591 849.632C241.576 850.573 264.315 849.753 280.998 849.783L288.129 849.531L287.964 880.468C241.458 879.423 192.787 880.473 146.008 880.192C141.874 872.118 137.574 861.318 134.013 852.801C126.429 852.543 117.65 853.001 109.871 852.961C98.9727 852.906 88.1459 852.709 77.2555 852.612C72.9174 861.753 69.2301 871.065 64.9257 880.143C54.9202 880.901 36.356 880.128 25.3915 880.282C26.6128 876.474 29.8726 870.047 31.7199 866.121L43.7375 840.521C48.4719 830.289 85.4284 747.66 88.8715 744.711C98.8485 744.12 113.359 744.434 123.585 744.408C128.79 753.729 135.443 769.895 140.191 780.221L169.52 843.375C172.112 849.014 181.655 870.791 184.629 874.233L185.316 873.757C186.799 869.356 186.276 828.662 186.297 821.17L186.744 744.495ZM89.0369 823.052C94.6163 823.215 100.731 823.011 106.389 823.002C111.471 823.012 116.391 823.074 121.472 822.953L121.149 822.095C119.426 817.421 107.106 784.407 105.342 782.793C99.6521 796.779 95.3784 808.955 89.0369 823.052Z"/><path fill="#F2994A" d="M484.315 742.193C587.882 738.001 591.719 876.964 497.22 882.092C476.351 882.598 458.204 880.5 441.229 866.928C427.081 855.664 418.062 839.181 416.203 821.194C411.34 776.605 440.983 746.314 484.315 742.193ZM495.715 848.369C515.748 845.405 529.544 826.708 526.466 806.692C523.388 786.677 504.612 772.988 484.614 776.181C464.778 779.347 451.223 797.94 454.276 817.794C457.329 837.648 475.844 851.309 495.715 848.369Z"/><path fill="#F2994A" d="M954.493 744.477C964.652 744.356 974.812 744.319 984.972 744.366L985.01 838.802C985.021 847.453 985.08 856.104 985.185 864.754C985.229 869.395 985.485 875.536 985.013 880.054C979.749 880.546 971.953 880.211 966.443 880.199C960.524 880.186 954.37 880.413 948.537 880.348L948.527 835.607C948.54 829.7 948.962 819.756 948.464 814.301C937.714 831.817 924.677 854.035 914.897 871.982C909.098 871.766 903.298 871.629 897.496 871.571C894.742 868.781 889.746 859.632 887.518 855.813C882.181 846.631 876.752 837.503 871.231 828.431C868.797 824.379 865.645 818.6 862.938 814.883C863.428 830.137 863.742 845.28 863.454 860.547C863.349 866.058 863.693 874.95 863.3 880.181C853.499 880.519 837.362 880.507 827.535 880.216C826.394 847.862 828.104 813.689 827.297 781.188C827.03 770.446 827.522 759.358 826.881 748.622C827.043 747.255 827.144 745.944 827.254 744.575L858.077 744.498C862.437 751.02 866.229 757.789 870.29 764.493C876.693 774.899 883.034 785.342 889.312 795.823C894.834 805.111 900.07 814.409 906.614 823.052C915.359 806.99 927.432 789.573 936.914 773.576C940.815 766.995 950.422 749.839 954.493 744.477Z"/><path fill="#F2994A" d="M575.4 744.565C584.876 743.997 598.538 744.314 608.279 744.413C625.632 744.772 641.62 743.301 658.783 746.828C688.627 752.96 703.097 777.764 696.568 807.044C693.06 822.777 684.498 829.978 671.363 838.131C677.789 849.583 685.59 859.91 693.07 870.674C695.355 873.961 697.428 876.85 699.089 880.517C696.039 880.518 692.609 880.313 689.526 880.19C678.605 880.24 667.684 880.223 656.764 880.14C647.951 869.044 641.182 855.544 631.398 844.563C626.017 844.332 619.761 844.035 614.45 844.462C614.133 856.143 614.355 868.565 614.389 880.314C601.354 880.112 588.119 880.433 575.159 880.088C574.568 867.253 575.345 850.791 575.404 837.715L575.4 744.565ZM614.502 775.527L614.465 814.295C623.472 814.169 639.568 815.368 647.315 812.187C647.558 812.044 647.8 811.9 648.042 811.757C657.532 807.485 659.912 793.453 655.021 785.002C648.564 773.845 633.488 774.744 622.433 775.27C619.865 775.406 617.132 775.413 614.502 775.527Z"/><path fill="#F2994A" d="M352.959 742.245C356.085 742.122 359.214 742.117 362.341 742.228C381.703 743.1 403.04 750.459 416.331 765.076C412.687 769.852 396.482 786.188 391.591 789.682C378.097 777.459 365.173 771.667 346.364 776.188C314.334 783.887 311.008 830.649 338.565 845.759C349.385 851.691 363.856 850.335 375.557 846.6C376.006 833.81 375.346 819.072 375.518 806.004C384.162 805.54 395.659 805.889 404.625 805.802L409.818 805.822C409.076 825.097 410.488 846.562 409.425 865.089C395.81 876.542 382.86 879.916 365.501 881.93C322.762 886.888 283.697 863.051 280.61 817.658C279.368 799.407 283.578 781.201 296.242 766.88C311.585 749.53 330.157 743.623 352.959 742.245Z"/><path fill="#F2994A" d="M685.767 744.387C689.71 744.119 695.06 744.388 699.142 744.403L726.509 744.491C731.768 752.469 736.074 761.5 741.281 769.587C746.668 777.953 751.346 786.838 756.715 795.215C767.015 780.34 777.196 759.408 788.641 744.879C797.573 744.15 816.106 744.623 826.19 744.451C825.703 745.549 825.248 746.271 825.246 747.429C813.514 765.639 802.61 784.037 791.762 802.885C786.99 811.176 778.13 824.29 775.316 833.205C774.725 835.075 774.927 847.793 774.936 850.782L774.89 880.18C761.793 880.067 748.695 880.069 735.598 880.187C735.276 869.906 735.522 859.541 735.505 849.25C735.496 843.785 735.932 837.865 734.86 832.494C733.464 825.502 711.838 789.87 706.995 781.494L685.767 744.387Z"/><path fill="#FAFEF1" fill-opacity="0.97647059" d="M826.19 744.451L827.254 744.575C827.144 745.944 827.043 747.255 826.881 748.622L825.246 747.429C825.248 746.271 825.703 745.549 826.19 744.451Z"/></svg>